<?xml version="1.0" standalone="no"?>
<!DOCTYPE svg PUBLIC "-//W3C//DTD SVG 20010904//EN"
 "http://www.w3.org/TR/2001/REC-SVG-20010904/DTD/svg10.dtd">
<svg version="1.0" xmlns="http://www.w3.org/2000/svg"
 width="260.000000pt" height="261.000000pt" viewBox="0 0 260.000000 261.000000"
 preserveAspectRatio="xMidYMid meet">

<g transform="translate(0.000000,261.000000) scale(0.100000,-0.100000)"
fill="#000000" stroke="none">
<path d="M1630 1989 c-14 -6 -75 -41 -135 -79 l-111 -69 -59 24 c-154 61 -399
72 -570 25 -94 -25 -201 -79 -240 -121 -38 -39 -29 -37 33 9 28 21 70 44 94
51 24 7 55 19 69 27 14 7 35 10 47 7 13 -3 33 2 48 12 18 12 36 15 59 11 19
-4 52 0 76 8 26 8 65 12 94 9 28 -2 63 -4 80 -4 16 0 39 -6 50 -13 12 -8 33
-12 48 -9 17 3 34 0 45 -10 9 -8 36 -18 60 -22 23 -4 42 -10 42 -14 0 -3 -26
-22 -57 -40 -32 -19 -77 -54 -101 -79 l-42 -45 -40 18 c-32 15 -42 15 -55 5
-24 -20 -18 -33 30 -63 l45 -29 0 -102 c0 -69 5 -118 16 -150 13 -38 14 -50 4
-56 -20 -13 -139 -21 -200 -14 -32 3 -65 2 -76 -4 -13 -6 -27 -6 -44 1 -14 5
-35 9 -47 8 -12 -1 -32 8 -44 20 -17 17 -34 23 -61 22 -21 -1 -40 2 -43 8 -4
5 -21 16 -40 23 -18 8 -36 23 -40 34 -3 12 -15 22 -27 24 -12 2 -26 12 -32 23
-6 10 -21 28 -34 38 -24 20 -29 56 -11 74 9 9 8 20 -3 44 -15 30 -14 64 2 74
5 3 6 14 3 26 -5 18 -8 17 -27 -13 -20 -31 -21 -48 -24 -287 l-3 -253 26 -54
c32 -66 97 -124 189 -169 87 -43 164 -62 287 -74 152 -14 346 12 442 61 l38
19 42 -38 c149 -137 318 -191 424 -136 90 48 369 230 404 264 20 20 38 45 41
57 5 18 3 19 -16 11 -12 -6 -26 -20 -31 -32 -6 -14 -21 -23 -39 -25 -17 -2
-42 -17 -58 -34 -22 -23 -33 -29 -51 -23 -12 3 -34 8 -49 9 -16 2 -36 10 -46
20 -11 9 -26 14 -34 11 -19 -8 -118 42 -118 59 0 18 -30 42 -62 50 -15 3 -29
14 -33 25 -3 10 -17 23 -30 29 -14 7 -25 20 -25 31 0 11 -24 56 -54 99 -29 43
-68 117 -86 163 -18 46 -37 87 -43 91 -17 11 -36 100 -26 121 7 12 5 24 -6 39
-21 31 -19 45 12 74 21 19 26 32 25 66 -2 37 3 46 40 81 37 34 45 38 78 32 27
-5 40 -2 50 9 14 18 55 21 65 6 3 -5 22 -10 40 -10 26 0 39 -6 51 -25 11 -18
25 -25 47 -25 21 0 38 -9 58 -31 16 -18 38 -37 51 -43 12 -6 28 -22 35 -36 6
-13 23 -30 37 -37 13 -7 28 -23 32 -35 4 -13 15 -29 25 -36 11 -7 19 -19 19
-25 0 -7 9 -20 20 -30 11 -9 20 -28 20 -43 0 -30 15 -62 41 -87 11 -10 19 -32
19 -51 0 -19 7 -39 15 -46 8 -7 15 -27 15 -44 0 -18 5 -37 12 -44 7 -7 12 -47
12 -106 0 -54 4 -92 10 -89 16 11 -1 223 -24 293 -103 313 -368 572 -582 569
-35 0 -74 -5 -88 -10z"/>
<path d="M1715 1700 c-16 -16 -26 -32 -23 -35 10 -10 240 -105 253 -105 20 0
30 41 14 52 -47 30 -199 118 -207 118 -4 0 -21 -13 -37 -30z"/>
<path d="M740 1621 c0 -5 -13 -14 -30 -21 -16 -7 -30 -16 -30 -21 0 -5 -5 -8
-12 -6 -12 2 -19 -29 -32 -130 l-7 -53 60 7 c42 4 65 2 75 -6 8 -7 20 -10 25
-7 5 4 13 1 17 -5 4 -8 3 -9 -4 -5 -7 4 -12 3 -12 -3 0 -5 8 -12 18 -15 16 -5
159 -36 167 -36 1 0 6 21 10 48 4 26 13 54 21 63 12 13 10 19 -16 48 -17 18
-30 36 -30 40 0 15 -47 49 -105 76 -63 29 -115 41 -115 26z"/>
<path d="M1780 1398 c0 -7 -19 -29 -42 -49 l-42 -36 59 -61 c33 -34 65 -62 71
-62 41 0 104 -70 104 -115 0 -8 5 -15 11 -15 14 0 105 80 102 90 -1 4 5 7 15
6 14 -1 17 10 20 71 l3 71 -43 30 c-99 67 -137 85 -154 71 -11 -9 -18 -9 -26
-1 -16 16 -78 15 -78 0z"/>
</g>
</svg>
